<svg xmlns="http://www.w3.org/2000/svg" width="273" height="272" viewBox="0 0 72.231 71.967"><path fill="none" stroke="#93a1a1" stroke-width=".248" stroke-linecap="square" paint-order="stroke markers fill" d="M4.357 8.326h63.516v63.516H4.357z"/><path d="M4.366 67.601h63.5M4.366 63.368h63.5M4.366 59.134h63.5M4.366 54.901h63.5M4.366 50.668h63.5M4.366 46.434h63.5M4.366 42.201h63.5M4.366 37.968h63.5M4.366 33.734h63.5M4.366 29.501h63.5M4.366 25.268h63.5M4.366 21.034h63.5M4.366 16.801h63.5M4.366 12.568h63.5M8.599 8.334v63.5M12.832 8.334v63.5M17.066 8.334v63.5M21.299 8.334v63.5M25.532 8.334v63.5M29.766 8.334v63.5M33.999 8.334v63.5M38.232 8.334v63.5M46.699 8.334v63.5M50.932 8.334v63.5M55.166 8.334v63.5M59.399 8.334v63.5M42.466 8.334v63.5M63.632 8.334v63.5" fill="none" stroke="#93a1a1" stroke-width=".265" stroke-linecap="square"/><path d="M12.295 12.295H59.92v3.969H20.232V28.17H59.92v3.969H16.264v-3.97h-3.97zM8.326 36.107v3.969H32.14v3.969H20.232v3.969h-7.937V59.92h7.937v3.969h31.75v-3.97h7.938V48.015h-7.938v-3.97H40.076v-3.968H63.89v-3.969zm39.688 11.907v3.968h3.968v3.97h-3.968v3.968H24.2V55.95h-3.969v-3.969h3.97v-3.968z" fill="#cb4b16" fill-opacity=".502" stroke="#cb4b16" stroke-width=".794" stroke-linecap="square"/><g aria-label="15 pixels:" style="line-height:1.25" font-weight="400" font-size="16" font-family="NeoDunggeunmo" letter-spacing="0" word-spacing="0" fill="#657b83"><path d="M4.762 1.058h.265V.794h.265V.529h.529v2.646h-.53V1.323h-.529zM6.615.53h1.852v.264H7.144v.793h1.058v.265h.265V2.91h-.265v.265H6.615V2.91h1.322V1.852H6.615zM10.848 1.323h1.587v.264h.265V2.91h-.265v.265h-1.058v.794h-.53zm.53.264V2.91h.793V1.587zM13.494.53h.529v.528h-.53zm0 .793h.529V2.91h.264v.265h-.529V2.91h-.264zM15.081 1.323h.53v.53h.264v.264h.265v-.265h.264v-.53h.53v.53h-.265v.265h-.265v.264h.265v.265h.264v.529h-.529v-.53h-.264v-.264h-.265v.265h-.265v.529h-.529v-.53h.265v-.264h.264v-.264h-.264v-.265h-.265zM17.198 1.587h.264v-.264h1.323v.264h.265v.53h-1.323v.793h.794v-.264h.529v.264h-.265v.265h-1.323V2.91h-.264zm.53 0v.265h.793v-.265zM19.844.53h.529v2.38h.264v.265h-.529V2.91h-.264zM21.431 1.587h.265v-.264h1.323v.264h.264v.265h-.529v-.265h-.794v.53h1.059v.264h.264v.53h-.264v.264h-1.323V2.91h-.265v-.264h.53v.264h.793v-.529h-1.058v-.264h-.265zM24.342 1.058h.529v.53h-.53zm0 1.323h.529v.53h-.53z" style="-inkscape-font-specification:NeoDunggeunmo"/></g></svg>