<svg xmlns="http://www.w3.org/2000/svg" width="561" height="288" viewBox="0 0 148.431 76.2"><g stroke-linecap="square"><g stroke="#93a1a1" fill="none" stroke-width=".265"><path d="M4.366 71.834h67.733"/><path paint-order="stroke markers fill" d="M4.365 8.334h67.733v67.733H4.365z"/><path d="M4.366 67.601h67.733M4.366 63.368h67.733M4.366 59.134h67.733M4.366 54.901h67.733M4.366 50.668h67.733M4.366 46.434h67.733M4.366 42.201h67.733M4.366 37.968h67.733M4.366 33.734h67.733M4.366 29.501h67.733M4.366 25.268h67.733M4.366 21.034h67.733M4.366 16.801h67.733M4.366 12.568h67.733M8.599 8.334v67.734M12.832 8.334v67.734M17.066 8.334v67.734M21.299 8.334v67.734M25.532 8.334v67.734M29.766 8.334v67.734M33.999 8.334v67.734M38.232 8.334v67.734M46.699 8.334v67.734M50.932 8.334v67.734M55.166 8.334v67.734M59.399 8.334v67.734M42.466 8.334v67.734M63.632 8.334v67.734M67.866 8.334v67.734"/></g><path d="M12.832 12.568h50.8V16.8H21.3v12.7h42.333v4.233H17.066v-4.233h-4.234z" fill="#2aa198" stroke="#2aa198" stroke-width=".265"/><path d="M8.599 37.968V42.2h25.4v4.233h-12.7v4.234h-8.467v12.7H21.3V67.6h33.867v-4.233h8.466v-12.7h-8.466v-4.234h-12.7v-4.233h25.4v-4.233zm42.333 12.7V54.9h4.234v4.233h-4.234v4.234h-25.4v-4.234H21.3v-4.233h4.233v-4.233z" fill="#2aa198" stroke="#2aa198" stroke-width=".26458"/></g><path d="M76.332 71.834h67.734" fill="none" stroke="#93a1a1" stroke-width=".265" stroke-linecap="square"/><path fill="none" stroke="#93a1a1" stroke-width=".265" stroke-linecap="square" paint-order="stroke markers fill" d="M76.332 8.334h67.733v67.733H76.332z"/><path d="M76.332 67.601h67.734M76.332 63.368h67.734M76.332 59.134h67.734M76.332 54.901h67.734M76.332 50.668h67.734M76.332 46.434h67.734M76.332 42.201h67.734M76.332 37.968h67.734M76.332 33.734h67.734M76.332 29.501h67.734M76.332 25.268h67.734M76.332 21.034h67.734M76.332 16.801h67.734M76.332 12.568h67.734M80.566 8.334v67.734M84.799 8.334v67.734M89.032 8.334v67.734M93.266 8.334v67.734M97.499 8.334v67.734M101.732 8.334v67.734M105.966 8.334v67.734M110.199 8.334v67.734M118.666 8.334v67.734M122.899 8.334v67.734M127.132 8.334v67.734M131.366 8.334v67.734M114.432 8.334v67.734M135.599 8.334v67.734M139.832 8.334v67.734M78.449 8.334v67.734M82.682 8.334v67.734M86.916 8.334v67.734M91.149 8.334v67.734M95.382 8.334v67.734M99.616 8.334v67.734M103.849 8.334v67.734M108.082 8.334v67.734M116.549 8.334v67.734M120.782 8.334v67.734M125.016 8.334v67.734M129.249 8.334v67.734M112.316 8.334v67.734M133.482 8.334v67.734M137.716 8.334v67.734M141.949 8.334v67.734M76.332 69.718h67.734M76.332 65.484h67.734M76.332 61.251h67.734M76.332 57.018h67.734M76.332 52.784h67.734M76.332 48.551h67.734M76.332 44.318h67.734M76.332 40.084h67.734M76.332 35.851h67.734M76.332 31.618h67.734M76.332 27.384h67.734M76.332 23.151h67.734M76.332 18.918h67.734M76.332 14.684h67.734M76.332 10.451h67.734M76.332 73.951h67.734" fill="none" stroke="#93a1a1" stroke-width=".265" stroke-linecap="square"/><g style="line-height:1.25"><path d="M353.435-56.713h11.997v5h-1v1h-2v-1h1v-4h-9.997zm-1 6h13.996v1h-13.996zm1 2h2v4h9.997v1h-10.997v-1h-1z" style="-inkscape-font-specification:NeoDunggeunmo" font-family="NeoDunggeunmo" transform="matrix(4.23458 0 0 4.23333 -1411.851 252.654)" aria-label="근" font-weight="400" font-size="16" letter-spacing="0" word-spacing="0" fill="#2aa198" stroke="#2aa198" stroke-width=".062"/></g><g fill="#657b83" font-weight="400" font-size="16" font-family="NeoDunggeunmo" letter-spacing="0" word-spacing="0"><path d="M4.762 1.058h.265V.794h.265V.529h.529v2.646h-.53V1.323h-.529zM6.615.794h.264V.529h1.323v.265H7.144v.794h1.058v.264h.265V2.91h-.265v.265H6.88V2.91h-.264zm.529 1.058V2.91h.793V1.852zM10.848 1.323h1.587v.265h.265V2.91h-.265v.265h-1.058v.794h-.53zm.53.265V2.91h.793V1.588zM13.494.53h.529v.528h-.53zm0 .793h.529V2.91h.265v.265h-.53V2.91h-.264zM15.081 1.323h.53v.53h.264v.264h.265v-.265h.264v-.53h.53v.53h-.265v.265h-.265v.264h.265v.265h.264v.529h-.529v-.53h-.264v-.264h-.265v.265h-.265v.529h-.529v-.53h.265v-.264h.264v-.264h-.264v-.265h-.265zM17.198 1.588h.265v-.265h1.322v.265h.265v.529h-1.323v.793h.794v-.264h.529v.264h-.265v.265h-1.322V2.91h-.265zm.53 0v.264h.793v-.264zM19.844.53h.529v2.38h.265v.265h-.53V2.91h-.264zM21.431 1.588h.265v-.265h1.323v.265h.264v.264h-.529v-.264h-.794v.529h1.059v.264h.264v.53h-.264v.264h-1.323V2.91h-.265v-.264h.53v.264h.793v-.529h-1.058v-.264h-.265zM24.342 1.058h.529v.53h-.53zm0 1.323h.529v.53h-.53z" style="line-height:1.25;-inkscape-font-specification:NeoDunggeunmo"/></g><g fill="#657b83" font-weight="400" font-size="16" font-family="NeoDunggeunmo" letter-spacing="0" word-spacing="0"><path d="M76.2.53h1.588v.264h.264v.794h-.264v.264h.264V2.91h-.264v.265H76.2V2.91h1.323V1.852h-1.058v-.264h1.058V.794H76.2zM78.317.53h1.587v.264h.265v.794h-.265v.264h-1.058V2.91h1.323v.265h-1.852V1.852h.264v-.264h1.059V.794h-1.323zM82.55 1.323h1.588v.265h.264V2.91h-.264v.265h-1.059v.794h-.529zm.53.265V2.91h.793V1.588zM85.196.53h.529v.528h-.53zm0 .793h.529V2.91h.265v.265h-.53V2.91h-.264zM86.783 1.323h.53v.53h.264v.264h.265v-.265h.264v-.53h.53v.53h-.265v.265h-.265v.264h.265v.265h.264v.529h-.529v-.53h-.264v-.264h-.265v.265h-.264v.529h-.53v-.53h.265v-.264h.265v-.264h-.265v-.265h-.265zM88.9 1.588h.265v-.265h1.323v.265h.264v.529H89.43v.793h.794v-.264h.53v.264h-.265v.265h-1.323V2.91H88.9zm.53 0v.264h.793v-.264zM91.546.53h.529v2.38h.265v.265h-.53V2.91h-.264zM93.133 1.588h.265v-.265h1.323v.265h.264v.264h-.529v-.264h-.793v.529h1.058v.264h.264v.53h-.264v.264h-1.323V2.91h-.265v-.264h.53v.264h.793v-.529h-1.058v-.264h-.265zM96.044 1.058h.529v.53h-.53zm0 1.323h.529v.53h-.53z" style="line-height:1.25;-inkscape-font-specification:NeoDunggeunmo"/></g></svg>