<svg xmlns="http://www.w3.org/2000/svg" width="562" height="592" viewBox="0 0 148.696 156.633"><g stroke="#586e75" fill="none" stroke-width=".265" stroke-linecap="square"><path d="M4.366 71.834h67.733"/><path paint-order="stroke markers fill" d="M4.365 8.334h67.733v67.733H4.365z"/><path d="M4.366 67.601h67.733M4.366 63.368h67.733M4.366 59.134h67.733M4.366 54.901h67.733M4.366 50.668h67.733M4.366 46.434h67.733M4.366 42.201h67.733M4.366 37.968h67.733M4.366 33.734h67.733M4.366 29.501h67.733M4.366 25.268h67.733M4.366 21.034h67.733M4.366 16.801h67.733M4.366 12.568h67.733M8.599 8.334v67.734M12.832 8.334v67.734M17.066 8.334v67.734M21.299 8.334v67.734M25.532 8.334v67.734M29.766 8.334v67.734M33.999 8.334v67.734M38.232 8.334v67.734M46.699 8.334v67.734M50.932 8.334v67.734M55.166 8.334v67.734M59.399 8.334v67.734M42.466 8.334v67.734M63.632 8.334v67.734M67.866 8.334v67.734"/></g><g stroke="#586e75" fill="none" stroke-width=".265" stroke-linecap="square"><path d="M76.332 71.834h67.734"/><path paint-order="stroke markers fill" d="M76.332 8.334h67.733v67.733H76.332z"/><path d="M76.332 67.601h67.734M76.332 63.368h67.734M76.332 59.134h67.734M76.332 54.901h67.734M76.332 50.668h67.734M76.332 46.434h67.734M76.332 42.201h67.734M76.332 37.968h67.734M76.332 33.734h67.734M76.332 29.501h67.734M76.332 25.268h67.734M76.332 21.034h67.734M76.332 16.801h67.734M76.332 12.568h67.734M80.566 8.334v67.734M84.799 8.334v67.734M89.032 8.334v67.734M93.266 8.334v67.734M97.499 8.334v67.734M101.732 8.334v67.734M105.966 8.334v67.734M110.199 8.334v67.734M118.666 8.334v67.734M122.899 8.334v67.734M127.132 8.334v67.734M131.366 8.334v67.734M114.432 8.334v67.734M135.599 8.334v67.734M139.832 8.334v67.734"/></g><path style="line-height:1.25;-inkscape-font-specification:NeoDunggeunmo" d="M11.774 11.51v6.35h42.333v14.816h-4.233v4.233H7.541v6.35h25.4v2.117H11.774v6.35h16.933v2.117H11.774v10.583h4.233v4.233h23.284v-6.35H22.357v-2.116h16.934v-8.467h14.816v16.933h6.35v-4.233h4.234v-19.05H43.524v-2.117h25.4v-6.35h-8.467v-2.116h4.234V11.509z" font-weight="400" font-size="16" font-family="NeoDunggeunmo" letter-spacing="0" word-spacing="0" fill="none" stroke="#cb4b16" stroke-width=".7937399999999999"/><path style="line-height:1.25;-inkscape-font-specification:NeoDunggeunmo" d="M84.799 12.568V29.5h4.233v4.233h16.934v4.234h-25.4V42.2h59.266v-4.233h-25.4v-4.234h16.934v-4.233h4.233V12.568h-8.467v8.466H93.266v-8.466zm8.467 12.7h33.866V29.5H93.266zm-8.467 21.166v4.234h42.333V54.9H84.8v8.467h4.233V67.6H135.6v-4.233H93.266v-4.234h42.333v-12.7z" font-weight="400" font-size="16" font-family="NeoDunggeunmo" letter-spacing="0" word-spacing="0" fill="#cb4b16" fill-opacity=".502" stroke="#cb4b16" stroke-width=".26458"/><path style="line-height:1.25;-inkscape-font-specification:NeoDunggeunmo" d="M12.832 12.568V16.8h42.334v16.933h-4.234v4.234H8.6V42.2h25.4v4.233H12.832v4.234h16.934V54.9H12.832v8.467h4.234V67.6h21.166v-4.233H21.3v-4.234h16.933v-8.466h16.934V67.6h4.233v-4.233h4.233V46.434H42.466v-4.233h25.4v-4.233h-8.467v-4.234h4.233V12.568z" font-weight="400" font-size="16" font-family="NeoDunggeunmo" letter-spacing="0" word-spacing="0" fill="#cb4b16" fill-opacity=".502" stroke="#cb4b16" stroke-width=".265"/><path style="line-height:1.25;-inkscape-font-specification:NeoDunggeunmo" d="M84.799 12.568V29.5h4.233v4.233h16.934v4.234h-25.4V42.2h63.5v-4.233h-25.4v-4.234h16.933v-4.233h4.233V12.568h-12.7v8.466H97.5v-8.466h-4.233zm12.7 12.7h29.633V29.5H97.5zm-12.7 21.166v4.234h42.333V54.9H84.8v8.467h4.233V67.6h50.8v-4.233H97.5v-4.234h42.333v-12.7H135.6z" font-weight="400" font-size="16" font-family="NeoDunggeunmo" letter-spacing="0" word-spacing="0" fill="none" stroke="#cb4b16" stroke-width=".7937399999999999"/><g font-weight="400" font-size="16" font-family="NeoDunggeunmo" letter-spacing="0" word-spacing="0" fill="#839496"><path d="M4.762 1.058h.265V.794h.265V.529h.529v2.646h-.53V1.323h-.529zM6.615.794h.264V.529h1.323v.265H7.144v.794h1.058v.264h.265V2.91h-.265v.265H6.88V2.91h-.264zm.529 1.058V2.91h.793V1.852zM10.848 1.323h1.587v.265h.265V2.91h-.265v.265h-1.058v.794h-.53zm.53.265V2.91h.793V1.588zM13.494.53h.529v.528h-.53zm0 .793h.529V2.91h.265v.265h-.53V2.91h-.264zM15.081 1.323h.53v.53h.264v.264h.265v-.265h.264v-.53h.53v.53h-.265v.265h-.265v.264h.265v.265h.264v.529h-.529v-.53h-.264v-.264h-.265v.265h-.265v.529h-.529v-.53h.265v-.264h.264v-.264h-.264v-.265h-.265zM17.198 1.588h.265v-.265h1.322v.265h.265v.529h-1.323v.793h.794v-.264h.529v.264h-.265v.265h-1.322V2.91h-.265zm.53 0v.264h.793v-.264zM19.844.53h.529v2.38h.264v.265h-.529V2.91h-.264zM21.431 1.588h.265v-.265h1.323v.265h.264v.264h-.529v-.264h-.794v.529h1.059v.264h.264v.53h-.264v.264h-1.323V2.91h-.265v-.264h.53v.264h.793v-.529h-1.058v-.264h-.265zM24.077 3.175h.265v-.794h.529v.794h-.265v.265h-.529zM27.781 1.588h.265V.794h.264V.529h1.059v.265h.264v.264h-.529V.794h-.529v.794h.53v.264h-.53v1.323h-.53V1.852h-.264zM29.898 1.323h1.587v.265h.265v1.587h-1.588V2.91h-.264v-.793h.264v-.265h1.059v-.264h-1.323zm.53.794v.793h.793v-.793zM32.015 1.323h.529V2.91h.793V1.323h.53V2.91h-.265v.265H32.28V2.91h-.264zM34.131 1.323h.53v.53h.264v.264h.265v-.265h.264v-.53h.53v.53h-.265v.265h-.265v.264h.265v.265h.264v.529h-.529v-.53h-.264v-.264h-.265v.265h-.265v.529h-.529v-.53h.265v-.264h.264v-.264h-.264v-.265h-.265zM38.365.53h.529v.793h1.058v.265h.265V2.91h-.265v.265h-1.587zm.529 1.058V2.91h.793V1.588zM40.481 1.588h.265v-.265h1.323v.265h.264V2.91h-.264v.265h-1.323V2.91h-.265zm.53 0V2.91h.793V1.588zM43.127.53h.53v2.38h.264v.265h-.53V2.91h-.264zM44.715 1.588h.264v-.265h1.058V.529h.53v2.646h-1.588V2.91h-.264zm.529 0V2.91h.793V1.588zM48.948 1.323h.264V.529h.53v.794h.529v.265h-.53V2.91h.53v-.264h.529v.264h-.265v.265h-1.058V2.91h-.265V1.588h-.264zM51.065 1.323h.529V2.91h.793V1.323h.53v2.381h-.265v.265H51.33v-.265h1.058v-.529H51.33V2.91h-.264zM53.181 1.323h1.588v.265h.264V2.91h-.264v.265H53.71v.794h-.529zm.53.265V2.91h.793V1.588zM55.298 1.588h.264v-.265h1.323v.265h.265v.529h-1.323v.793h.794v-.264h.529v.264h-.265v.265h-1.323V2.91h-.264zm.53 0v.264h.793v-.264zM59.796 1.058h.264V.794h.265V.529h.53v2.646h-.53V1.323h-.53zM62.442 1.058h.529v.53h-.53zm0 1.323h.529v.53h-.53z" style="line-height:1.25;-inkscape-font-specification:NeoDunggeunmo"/></g><g font-weight="400" font-size="16" font-family="NeoDunggeunmo" letter-spacing="0" word-spacing="0" fill="#839496"><path d="M76.73 1.058h.264V.794h.264V.529h.53v2.646h-.53V1.323h-.529zM78.581.794h.265V.529h1.323v.265H79.11v.794h1.059v.264h.264V2.91h-.264v.265h-1.323V2.91h-.265zm.53 1.058V2.91h.793V1.852zM82.815 1.323h1.587v.265h.265V2.91h-.265v.265h-1.058v.794h-.53zm.529.265V2.91h.793V1.588zM85.46.53h.53v.528h-.53zm0 .793h.53V2.91h.264v.265h-.529V2.91h-.265zM87.048 1.323h.53v.53h.264v.264h.264v-.265h.265v-.53h.529v.53h-.265v.265h-.264v.264h.264v.265h.265v.529h-.53v-.53h-.264v-.264h-.264v.265h-.265v.529h-.53v-.53h.265v-.264h.265v-.264h-.265v-.265h-.264zM89.165 1.588h.264v-.265h1.323v.265h.265v.529h-1.323v.793h.793v-.264h.53v.264h-.265v.265H89.43V2.91h-.264zm.529 0v.264h.793v-.264zM91.81.53h.53v2.38h.264v.265h-.529V2.91h-.265zM93.398 1.588h.264v-.265h1.323v.265h.265v.264h-.53v-.264h-.793v.529h1.058v.264h.265v.53h-.265v.264h-1.323V2.91h-.264v-.264h.53v.264h.793v-.529h-1.059v-.264h-.264zM96.044 3.175h.264v-.794h.53v.794h-.265v.265h-.53zM99.748 1.588h.264V.794h.265V.529h1.058v.265h.265v.264h-.53V.794h-.528v.794h.529v.264h-.53v1.323h-.529V1.852h-.264zM101.865 1.323h1.587v.265h.265v1.587h-1.588V2.91h-.264v-.793h.264v-.265h1.058v-.264h-1.322zm.529.794v.793h.793v-.793zM103.981 1.323h.53V2.91h.793V1.323h.53V2.91h-.265v.265h-1.323V2.91h-.265zM106.098 1.323h.53v.53h.264v.264h.264v-.265h.265v-.53h.529v.53h-.265v.265h-.264v.264h.264v.265h.265v.529h-.53v-.53h-.264v-.264h-.264v.265h-.265v.529h-.53v-.53h.265v-.264h.265v-.264h-.265v-.265h-.264zM110.331.53h.53v.793h1.058v.265h.264V2.91h-.264v.265h-1.588zm.53 1.058V2.91h.793V1.588zM112.448 1.588h.264v-.265h1.323v.265h.265V2.91h-.265v.265h-1.323V2.91h-.264zm.53 0V2.91h.793V1.588zM115.094.53h.529v2.38h.264v.265h-.529V2.91h-.264zM116.681 1.588h.265v-.265h1.058V.529h.53v2.646h-1.588V2.91h-.265zm.53 0V2.91h.793V1.588zM120.915 1.323h.264V.529h.53v.794h.528v.265h-.529V2.91h.53v-.264h.529v.264h-.265v.265h-1.058V2.91h-.265V1.588h-.264zM123.031 1.323h.53V2.91h.793V1.323h.53v2.381h-.265v.265h-1.323v-.265h1.058v-.529h-1.058V2.91h-.265zM125.148 1.323h1.587v.265H127V2.91h-.265v.265h-1.058v.794h-.53zm.53.265V2.91h.793V1.588zM127.265 1.588h.264v-.265h1.323v.265h.265v.529h-1.323v.793h.793v-.264h.53v.264h-.265v.265h-1.323V2.91h-.264zm.529 0v.264h.793v-.264zM131.498.53h1.587v.264h.265v.794h-.265v.264h-1.058V2.91h1.323v.265h-1.852V1.852h.264v-.264h1.059V.794h-1.323zM134.408 1.058h.53v.53h-.53zm0 1.323h.53v.53h-.53z" style="line-height:1.25;-inkscape-font-specification:NeoDunggeunmo"/></g><g stroke="#586e75" fill="none" stroke-width=".265" stroke-linecap="square"><path d="M4.366 152.268h67.733"/><path paint-order="stroke markers fill" d="M4.365 88.767h67.733V156.5H4.365z"/><path d="M4.366 148.034h67.733M4.366 143.801h67.733M4.366 139.568h67.733M4.366 135.334h67.733M4.366 131.101h67.733M4.366 126.868h67.733M4.366 122.634h67.733M4.366 118.401h67.733M4.366 114.168h67.733M4.366 109.934h67.733M4.366 105.701h67.733M4.366 101.468h67.733M4.366 97.234h67.733M4.366 93.001h67.733M8.599 88.768V156.5M12.832 88.768V156.5M17.066 88.768V156.5M21.299 88.768V156.5M25.532 88.768V156.5M29.766 88.768V156.5M33.999 88.768V156.5M38.232 88.768V156.5M46.699 88.768V156.5M50.932 88.768V156.5M55.166 88.768V156.5M59.399 88.768V156.5M42.466 88.768V156.5M63.632 88.768V156.5M67.866 88.768V156.5"/></g><g aria-label="16 pixels, faux italic" style="line-height:1.25" font-weight="400" font-size="16" font-family="NeoDunggeunmo" letter-spacing="0" word-spacing="0" fill="#839496"><path d="M4.763 81.492h.264v-.265h.265v-.264h.529v2.645h-.53v-1.852h-.528zM6.615 81.227h.264v-.264h1.323v.264H7.144v.794h1.058v.264h.265v1.059h-.265v.264H6.88v-.264h-.264zm.529 1.058v1.059h.794v-1.059zM10.848 81.756h1.587v.265h.265v1.323h-.265v.264h-1.058v.794h-.53zm.53.265v1.323h.793V82.02zM13.494 80.963h.529v.529h-.53zm0 .793h.529v1.588h.265v.264h-.53v-.264h-.264zM15.081 81.756h.53v.53h.264v.264h.265v-.265h.264v-.529h.53v.53h-.265v.264h-.265v.265h.265v.264h.264v.53h-.529v-.53h-.264v-.264h-.265v.264h-.265v.53h-.529v-.53h.265v-.264h.264v-.265h-.264v-.265h-.265zM17.198 82.02h.265v-.264h1.322v.265h.265v.529h-1.323v.794h.794v-.265h.529v.265h-.265v.264h-1.322v-.264h-.265zm.53 0v.265h.793v-.264zM19.844 80.963h.529v2.38h.265v.265h-.53v-.264h-.264zM21.431 82.02h.265v-.264h1.323v.265h.264v.264h-.529v-.264h-.794v.529h1.059v.265h.264v.529h-.264v.264h-1.323v-.264h-.265v-.265h.53v.265h.793v-.53h-1.058v-.264h-.265zM24.077 83.608h.265v-.793h.529v.793h-.265v.265h-.529zM27.781 82.02h.265v-.793h.264v-.264h1.059v.264h.264v.265h-.529v-.265h-.529v.794h.53v.264h-.53v1.323h-.53v-1.323h-.264zM29.898 81.756h1.587v.265h.265v1.587h-1.588v-.264h-.264v-.794h.264v-.265h1.059v-.264h-1.323zm.53.794v.794h.793v-.794zM32.015 81.756h.529v1.588h.793v-1.588h.53v1.588h-.265v.264H32.28v-.264h-.264zM34.131 81.756h.53v.53h.264v.264h.265v-.265h.264v-.529h.53v.53h-.265v.264h-.265v.265h.265v.264h.264v.53h-.529v-.53h-.264v-.264h-.265v.264h-.265v.53h-.529v-.53h.265v-.264h.264v-.265h-.264v-.265h-.265zM38.894 80.963h.529v.529h-.53zm0 .793h.529v1.588h.264v.264h-.529v-.264h-.264zM40.481 81.756h.265v-.793h.529v.793h.53v.265h-.53v1.323h.53v-.265h.528v.265h-.264v.264H41.01v-.264h-.264V82.02h-.265zM42.598 81.756h1.587v.265h.265v1.587h-1.588v-.264h-.264v-.794h.264v-.265h1.059v-.264h-1.323zm.53.794v.794h.793v-.794zM45.244 80.963h.529v2.38h.264v.265h-.529v-.264h-.264zM47.36 80.963h.53v.529h-.53zm0 .793h.53v1.588h.264v.264h-.529v-.264h-.265zM48.948 82.02h.264v-.264h1.323v.265h.265v.264h-.53v-.264h-.793v1.323h.794v-.265h.529v.265h-.265v.264h-1.323v-.264h-.264z" style="-inkscape-font-specification:NeoDunggeunmo"/></g><g style="line-height:1.25"><path d="M309.5 372.097h3v-1h2v1h3v1h-2v1h2v3h-2v1h-4v-1h-2v-3h2v-1h-2zm2 3v1h1v1h2v-1h1v-1h-1v-1h-2v1zm8-4h2v3h3v1h-3v3h-2zm-9 8h2v4h9v1h-10v-1h-1z" style="-inkscape-font-specification:NeoDunggeunmo" font-family="NeoDunggeunmo" transform="matrix(4.23333 0 -.32564 4.23333 -1180.773 -1477.977)" aria-label="한" font-weight="400" font-size="16" letter-spacing="0" word-spacing="0" fill="#cb4b16" fill-opacity=".502" stroke="#cb4b16" stroke-width=".188"/></g></svg>